# xmcd CD database file
#
# Track frame offsets:
#	150
#	20070
#	41412
#	60825
#
# Disc length: 948 seconds
#
# Revision: 0
# Processed by: cddbd v1.5.1PL0 Copyright (c) Steve Scherf et al.
# Submitted via: CDex 1.51
#
DISCID=2703b204
DTITLE=さくら (丹下桜) - Cherry A La Mode −ありがとう−
DYEAR=2004
DGENRE=Pop
TTITLE0=Loving you
TTITLE1=セピア
TTITLE2=familiar
TTITLE3=ボイス絵本〜ありがとう〜
EXTD=YEAR: 2004
EXTT0=
EXTT1=
EXTT2=
EXTT3=
PLAYORDER=
